<svg aria-hidden="true" style="position: absolute; width: 0; height: 0; overflow: hidden;" version="1.1" xmlns="http://www.w3.org/2000/svg" xmlns:xlink="http://www.w3.org/1999/xlink">
<defs>
<symbol id="icon-nav-open" viewBox="0 0 42 32">
<path stroke-linejoin="miter" stroke-linecap="butt" stroke-miterlimit="4" stroke-width="0.9014" d="M10.817 9.465h20.732"></path>
<path stroke-linejoin="miter" stroke-linecap="butt" stroke-miterlimit="4" stroke-width="0.9014" d="M10.817 15.775h20.732"></path>
<path stroke-linejoin="miter" stroke-linecap="butt" stroke-miterlimit="4" stroke-width="0.9014" d="M10.817 22.084h20.732"></path>
</symbol>
<symbol id="icon-fish" viewBox="0 0 40 32">
<path d="M11.405 0l0.856 2.091c0.534 1.3 1.259 4.55 1.092 6.083-2.073 1.277-3.344 2.524-4.325 3.564-1.198-0.969-3.569-2.614-7.508-2.614h-1.521v1.521c0 2.911 1.051 5.275 1.426 6.083-0.38 0.801-1.426 3.082-1.426 6.083v1.521h1.521c3.908 0 6.308-1.651 7.509-2.614 1.799 1.854 4.364 3.808 7.603 5.275-0.143 0.944-0.255 2.263 0.141 3.802l0.286 1.14h1.188c1.877 0 3.493-0.932 4.799-1.758 1.069-0.678 1.586-1.153 1.854-1.379 6.048-0.213 9.909-3.475 11.975-6.7 2.138-3.332 2.661-6.653 2.661-6.653l0.047-0.38-0.142-0.38c0 0-3.482-9.563-12.925-10.027-1.004-1.217-2.407-2.226-4.372-3.041-2.324-0.961-5.246-1.615-8.459-1.615h-2.281zM15.824 3.231c1.919 0.213 3.713 0.601 5.132 1.188 1.943 0.803 3.297 1.954 3.612 2.471l0.429 0.713h0.855c7.597 0 10.33 7.193 10.55 7.793-0.106 0.558-0.547 2.679-2.091 5.085-1.765 2.749-4.623 5.369-9.98 5.369h-0.57l-0.427 0.38c0 0-0.803 0.684-1.901 1.378-0.578 0.363-1.069 0.429-1.664 0.666 0.061-0.695 0-1.711 0-1.711l0.333-1.331-1.236-0.429c-3.765-1.437-6.968-4.145-8.601-6.034l-1.046-1.236-1.14 1.14c0 0-2.026 1.42-4.656 2.091 0.392-1.782 0.998-3.373 0.998-3.373l0.333-0.666-0.333-0.666c0 0-0.658-1.746-1.045-3.612 2.803 0.619 4.703 2.33 4.703 2.33l1.14 1.14 1.046-1.236c1.361-1.537 5.026-5.369 10.407-6.083l-0.429-2.994c-1.455 0.192-2.725 0.613-3.943 1.095-0.078-1.277-0.143-2.377-0.476-3.47zM29.653 13.686c-0.605 0-1.185 0.24-1.613 0.668s-0.668 1.008-0.668 1.613 0.24 1.185 0.668 1.613c0.428 0.428 1.008 0.668 1.613 0.668s1.185-0.24 1.613-0.668c0.428-0.428 0.668-1.008 0.668-1.613s-0.24-1.185-0.668-1.613c-0.428-0.428-1.008-0.668-1.613-0.668z"></path>
</symbol>
<symbol id="icon-carrot" viewBox="0 0 33 32">
<path d="M23.925 0l-1.5 2.208c0 0 0.817 0.636 1.208 1.543 0.339 0.796 0.584 1.729-0.708 3.291l-1.167 1.168c-3.927-3.344-7.917-3.501-7.917-3.501h-0.749l-0.417 0.667c0 0-3.4 5.781-6.667 11.751-1.633 2.984-3.249 6.021-4.372 8.417-0.564 1.197-1.007 2.24-1.293 3.083-0.14 0.421-0.24 0.776-0.291 1.167-0.053 0.391-0.199 0.927 0.457 1.584 0.657 0.656 1.193 0.509 1.584 0.457s0.745-0.151 1.167-0.291c0.844-0.287 1.885-0.729 3.084-1.293 2.392-1.124 5.429-2.737 8.415-4.372 5.964-3.272 11.751-6.667 11.751-6.667l0.667-0.417v-0.792c0 0-0.177-3.943-3.5-7.875l0.457-0.5c0.115-0.115 0.219-0.193 0.333-0.292l0.333-0.292c1.573-1.208 3.063-1.16 4.376-0.832 0.911 0.23 1.773 0.625 2.541 1.165l1.667-2.083c0 0-1.48-1.14-3.584-1.667-0.465-0.109-0.939-0.179-1.416-0.208l2.708-2.709-1.917-1.916-2.791 2.792c-0.067-0.314-0.165-0.622-0.292-0.917-0.751-1.749-2.167-2.667-2.167-2.667v-0.001zM14.508 7.541c0.876 0.084 3.381 0.448 6.376 3.459 3 3.021 3.369 5.507 3.457 6.375-0.219 0.131-1.359 0.819-2.249 1.333-0.472-1.048-1.059-2.039-1.751-2.957l-2.124 1.625c0.937 1.249 1.323 2.109 1.541 2.667-2.088 1.183-4.186 2.35-6.292 3.5-0.129 0.067-0.244 0.14-0.375 0.208-0.245-0.729-0.645-1.609-1.375-2.625l-2.167 1.541c0.656 0.917 0.979 1.672 1.125 2.167 0.025 0.084 0.025 0.104 0.040 0.166-1.993 1.068-3.92 2.093-5.499 2.833-0.823 0.387-1.407 0.6-2 0.833 0.235-0.593 0.448-1.177 0.833-2 1.077-2.296 2.672-5.291 4.291-8.249 0.781-1.427 1.376-2.495 2.084-3.751 0.427 0.375 0.979 0.88 1.584 1.667l2.083-1.625c-0.676-0.898-1.46-1.709-2.333-2.416 1.396-2.448 2.511-4.339 2.751-4.751h-0.001z"></path>
</symbol>
<symbol id="icon-lemon" viewBox="0 0 32 32">
<path d="M12 0c-3.443 0-6.505 1.917-8.625 4.833-2.12 2.917-3.375 6.853-3.375 11.167 0 4.312 1.255 8.251 3.375 11.167 2.12 2.917 5.183 4.833 8.625 4.833 10.973 0 16.823-6.276 18.251-12.875 1.003-0.725 1.749-1.797 1.749-3.125s-0.745-2.4-1.751-3.125c-1.503-6.765-8.499-12.875-18.249-12.875zM12 2.667c2.448 0 4.72 1.355 6.459 3.751 1.739 2.393 2.875 5.796 2.875 9.583s-1.136 7.187-2.875 9.584c-1.74 2.393-4.011 3.749-6.459 3.749s-4.72-1.355-6.459-3.751c-1.739-2.393-2.875-5.796-2.875-9.583s1.136-7.187 2.875-9.584c1.74-2.395 4.011-3.749 6.459-3.749zM20.5 4.708c4.053 2.147 6.656 5.677 7.292 9.125l0.124 0.667 0.627 0.292c0.463 0.213 0.791 0.661 0.791 1.208s-0.328 0.995-0.792 1.208l-0.624 0.292-0.125 0.667c-0.709 3.86-3.037 7.645-7.709 9.667 0.183-0.219 0.371-0.432 0.543-0.667 2.12-2.917 3.375-6.853 3.375-11.167 0-4.312-1.255-8.251-3.375-11.167-0.037-0.047-0.089-0.079-0.125-0.125zM12 5.333c-0.953 0-1.849 0.344-2.667 0.917l2.708 6.373 2.751-6.333c-0.845-0.617-1.803-0.957-2.792-0.957zM7.333 8.375c-1.047 1.64-1.765 3.84-1.959 6.292h4.625l-2.667-6.292zM16.751 8.5l-2.711 6.167h4.584c-0.187-2.396-0.865-4.536-1.876-6.167h0.003zM5.373 17.333c0.187 2.396 0.865 4.536 1.875 6.167l2.712-6.167h-4.587zM13.999 17.333l2.667 6.292c1.047-1.64 1.765-3.84 1.959-6.292h-4.625zM11.957 19.375l-2.751 6.333c0.844 0.62 1.803 0.959 2.792 0.959 0.953 0 1.849-0.344 2.667-0.917l-2.708-6.375z"></path>
</symbol>
<symbol id="icon-arrow" viewBox="0 0 56 32">
<path fill="#233000" style="fill: var(--color1, #233000)" d="M39.469 0l-3.233 3.304 9.835 9.828h-46.071v4.593h46.071l-9.833 9.83 3.231 3.302 15.424-15.429-15.424-15.429z"></path>
</symbol>
<symbol id="icon-instagram" viewBox="0 0 32 32">
<path d="M9.409 0c-5.165 0-9.409 4.239-9.409 9.409v13.181c0 5.165 4.239 9.41 9.409 9.41h13.181c5.165 0 9.41-4.239 9.41-9.41v-13.18c0-5.167-4.239-9.411-9.41-9.411h-13.181zM9.409 2.909h13.181c0.854-0.001 1.7 0.166 2.489 0.492s1.506 0.805 2.11 1.409c0.604 0.604 1.082 1.321 1.409 2.11s0.494 1.635 0.492 2.489v13.181c0.001 0.854-0.166 1.7-0.492 2.489s-0.805 1.506-1.409 2.11c-0.604 0.604-1.321 1.082-2.11 1.409s-1.635 0.494-2.489 0.492h-13.18c-0.854 0.001-1.7-0.166-2.489-0.492s-1.507-0.805-2.111-1.409c-0.604-0.604-1.083-1.321-1.409-2.11s-0.494-1.635-0.493-2.489c0 0 0.001-12.326 0-13.18s0.166-1.7 0.492-2.489c0.326-0.789 0.805-1.507 1.409-2.111s1.321-1.083 2.11-1.409c0.789-0.326 1.635-0.494 2.489-0.493zM24.59 6.092c-0.173-0.001-0.345 0.033-0.505 0.099s-0.306 0.163-0.428 0.286c-0.122 0.123-0.22 0.268-0.286 0.428s-0.099 0.332-0.099 0.505c0 0.733 0.585 1.318 1.318 1.318 0.173 0.001 0.345-0.032 0.506-0.098s0.306-0.163 0.429-0.285c0.123-0.123 0.22-0.268 0.286-0.429s0.1-0.332 0.099-0.506c0.001-0.173-0.033-0.345-0.099-0.506s-0.163-0.306-0.286-0.428c-0.123-0.123-0.268-0.22-0.429-0.285s-0.332-0.099-0.506-0.098zM16 7.273c-4.8 0-8.727 3.927-8.727 8.727s3.927 8.727 8.727 8.727c4.8 0 8.727-3.927 8.727-8.727s-3.927-8.727-8.727-8.727zM16 10.182c3.233 0 5.818 2.585 5.818 5.818s-2.585 5.818-5.818 5.818c-3.233 0-5.818-2.585-5.818-5.818s2.585-5.818 5.818-5.818z"></path>
</symbol>
<symbol id="icon-twitter" viewBox="0 0 41 32">
<path d="M40.727 3.796c-1.525 0.653-3.143 1.080-4.799 1.268 1.744-1.009 3.049-2.597 3.672-4.466-1.64 0.939-3.433 1.603-5.303 1.962-1.145-1.184-2.633-2.007-4.269-2.362s-3.345-0.227-4.904 0.368c-1.559 0.596-2.897 1.631-3.84 2.972s-1.446 2.924-1.445 4.545c0 0.635 0.073 1.25 0.221 1.839-3.323-0.158-6.575-0.991-9.543-2.445s-5.586-3.496-7.683-5.994c-0.745 1.233-1.136 2.635-1.132 4.063 0 2.8 1.471 5.273 3.718 6.722-1.327-0.041-2.625-0.388-3.784-1.014v0.103c-0.001 1.865 0.666 3.673 1.888 5.117s2.923 2.434 4.815 2.802c-1.23 0.326-2.521 0.374-3.774 0.141 0.534 1.605 1.572 3.008 2.971 4.015s3.088 1.565 4.831 1.598c-1.733 1.315-3.718 2.287-5.84 2.859s-4.34 0.735-6.528 0.479c3.819 2.376 8.265 3.637 12.807 3.633 15.371 0 23.778-12.308 23.778-22.983 0-0.344-0.014-0.699-0.027-1.045 1.633-1.143 3.045-2.556 4.169-4.174v-0.002z"></path>
</symbol>
<symbol id="icon-facebook" viewBox="0 0 32 32">
<path d="M2.909 0c-1.591 0-2.909 1.318-2.909 2.909v26.182c0 1.591 1.318 2.909 2.909 2.909h26.182c1.591 0 2.909-1.318 2.909-2.909v-26.182c0-1.591-1.318-2.909-2.909-2.909h-26.182zM2.909 2.909h26.182v26.182h-7.546v-9.818h3.773l0.545-4.364h-4.317v-2.819c0-1.271 0.311-2.135 2.135-2.135h2.364v-3.955c-0.403-0.051-1.801-0.137-3.408-0.137-3.353 0-5.636 2.017-5.636 5.773v3.273h-3.818v4.364h3.817v9.818h-14.090v-26.182z"></path>
</symbol>
<symbol id="icon-youtube" viewBox="0 0 41 32">
<path d="M20.364 0c-5.899 0-11.112 0.624-14.294 1.101-2.632 0.394-4.754 2.418-5.238 5.099-0.409 2.282-0.832 5.619-0.832 9.8s0.423 7.52 0.832 9.8c0.484 2.682 2.607 4.712 5.238 5.101 3.196 0.474 8.426 1.099 14.294 1.099s11.1-0.624 14.294-1.101c2.632-0.387 4.754-2.418 5.238-5.099 0.409-2.288 0.832-5.632 0.832-9.8s-0.417-7.512-0.832-9.8c-0.484-2.682-2.607-4.706-5.238-5.101-3.181-0.474-8.396-1.099-14.294-1.099zM20.364 3.2c5.691 0 10.776 0.594 13.854 1.050 0.64 0.093 1.234 0.39 1.7 0.848s0.778 1.053 0.894 1.703c0.379 2.112 0.783 5.243 0.783 9.2 0 3.95-0.404 7.088-0.783 9.2-0.114 0.65-0.426 1.247-0.892 1.705s-1.062 0.754-1.702 0.845c-3.092 0.456-8.2 1.050-13.854 1.050-5.655 0-10.769-0.594-13.854-1.050-0.64-0.093-1.235-0.389-1.701-0.847s-0.778-1.054-0.893-1.704c-0.379-2.112-0.783-5.237-0.783-9.2 0-3.968 0.404-7.088 0.783-9.2 0.115-0.65 0.427-1.246 0.893-1.704s1.061-0.754 1.701-0.847c3.072-0.456 8.163-1.050 13.854-1.050zM15.664 6.85v18.302l2.35-1.35 10.965-6.4 2.35-1.402-2.35-1.4-10.965-6.4-2.35-1.35zM18.797 12.35l6.217 3.65-6.217 3.65v-7.299z"></path>
</symbol>
<symbol id="icon-button-play" viewBox="0 0 22 32">
<path stroke-linejoin="miter" stroke-linecap="butt" stroke-miterlimit="4" stroke-width="2.6122" d="M1.306 29.091v-26.51l18.040 13.255-18.040 13.255z"></path>
</symbol>
<symbol id="icon-modal-btn" viewBox="0 0 32 32">
<path d="M17.39 15.812l14.46-14.358-1.465-1.455-14.46 14.358-14.46-14.358-1.465 1.455 14.46 14.358-14.080 13.981 1.465 1.455 14.080-13.98 14.080 13.981 1.465-1.455-14.080-13.981z"></path>
</symbol>
<symbol id="icon-bell" viewBox="0 0 32 32">
<path d="M16 32c2.209 0 4-1.791 4-4v0h-8c0 2.209 1.791 4 4 4v0zM16 3.836l-1.594 0.322c-3.681 0.768-6.406 3.986-6.406 7.84 0 0.001 0 0.002 0 0.003v-0c0 1.256-0.268 4.394-0.918 7.484-0.32 1.534-0.752 3.132-1.326 4.516h20.488c-0.574-1.384-1.004-2.98-1.326-4.516-0.65-3.090-0.918-6.228-0.918-7.484 0-0 0-0 0-0 0-3.854-2.725-7.072-6.354-7.83l-0.052-0.009zM28.44 24c0.446 0.894 0.962 1.602 1.56 2h-28c0.598-0.398 1.114-1.106 1.56-2 1.8-3.6 2.44-10.24 2.44-12 0-4.84 3.44-8.88 8.010-9.802-0.006-0.060-0.010-0.129-0.010-0.2 0-1.105 0.895-2 2-2s2 0.895 2 2c0 0.070-0.004 0.14-0.011 0.208l0.001-0.009c4.602 0.959 8.010 4.982 8.010 9.8 0 0.001 0 0.001 0 0.002v-0c0 1.76 0.64 8.4 2.44 12z"></path>
</symbol>
</defs>
</svg>
